<svg height="512" viewBox="0 0 64 64" width="512" xmlns="http://www.w3.org/2000/svg"><g id="hand-receipt-invoice-bill-finance"><path d="m5 35h5v22h-5z"/><path d="m32 26.5a2.5 2.5 0 0 0 -2.5-2.5h-9.91a.985.985 0 0 0 -.97.78l-2.65 11.44a.985.985 0 0 1 -.97.78h-3v18h4a.967.967 0 0 1 .55.17l2.75 1.83h3.7v-27a1 1 0 0 1 1-1h3.5c1.68 0 4.5-.32 4.5-2.5z"/><path d="m50 18a8 8 0 1 0 -8 8 8.011 8.011 0 0 0 8-8zm-10 6a3.009 3.009 0 0 1 -3-3h2a1 1 0 0 0 1 1h4a1 1 0 0 0 1-1v-1a1 1 0 0 0 -1-1h-4a3.009 3.009 0 0 1 -3-3v-1a3.009 3.009 0 0 1 3-3h1v-1h2v1h1a3.009 3.009 0 0 1 3 3v1h-2v-1a1 1 0 0 0 -1-1h-4a1 1 0 0 0 -1 1v1a1 1 0 0 0 1 1h4a3.009 3.009 0 0 1 3 3v1a3.009 3.009 0 0 1 -3 3h-1v1h-2v-1z"/><path d="m56 4.12-3.55 1.77a.956.956 0 0 1 -.9 0l-3.55-1.77-3.55 1.77a1.017 1.017 0 0 1 -.9.01l-3.57-1.78-3.53 1.77a.956.956 0 0 1 -.9 0l-3.55-1.77-3.55 1.77a.956.956 0 0 1 -.9 0l-2.55-1.27v17.38h4.5a4.507 4.507 0 0 1 4.5 4.5c0 1.06-.47 4.5-6.5 4.5h-2.5v27.38l3 1.5 3.55-1.77a.956.956 0 0 1 .9 0l3.55 1.77 3.55-1.77a.985.985 0 0 1 .9-.01l3.57 1.78 3.53-1.77a.985.985 0 0 1 .9 0l3.55 1.77 3.55-1.77a.956.956 0 0 1 .9 0l2.55 1.27v-53.76zm-24 42.88h-4v-2h4zm0-6h-4v-2h4zm0-6h-4v-2h4zm0-17a10 10 0 1 1 10 10 10.016 10.016 0 0 1 -10-10zm24 35h-14v-2h14zm0-6h-21v-2h21zm0-6h-21v-2h21zm0-6h-21v-2h21z"/></g></svg>